<svg width="24" height="24" viewBox="0 0 24 24" fill="none" xmlns="http://www.w3.org/2000/svg">
<g clip-path="url(#clip0_17_81)">
<path d="M14.25 0C9.13533 2.94696 9.74998 11.25 9.74998 11.25C9.74998 11.25 7.50001 10.5 7.50001 7.12502C4.81561 8.68158 3 11.6734 3 15C3 19.9706 7.02944 24 12 24C16.9706 24 21 19.9706 21 15C21 7.68751 14.25 6.18749 14.25 0ZM12.7906 20.8989C10.982 21.3498 9.15032 20.2492 8.69933 18.4406C8.24842 16.6321 9.34897 14.8003 11.1576 14.3494C15.5239 13.2607 16.0711 10.8054 16.0711 10.8054C16.0711 10.8054 18.2485 19.538 12.7906 20.8989Z" fill="#FF6D00"/>
</g>
<defs>
<clipPath id="clip0_17_81">
<rect width="24" height="24" fill="white"/>
</clipPath>
</defs>
</svg>
